<?xml version="1.0" encoding="utf-8"?>
<!-- Generator: Adobe Illustrator 25.2.1, SVG Export Plug-In . SVG Version: 6.00 Build 0)  -->
<svg version="1.1" id="Layer_1" xmlns="http://www.w3.org/2000/svg" xmlns:xlink="http://www.w3.org/1999/xlink" x="0px" y="0px"
	 viewBox="0 0 250 100" style="enable-background:new 0 0 250 100;" xml:space="preserve">
<style type="text/css">
	.st0{fill:#9CACFF;}
	.st1{fill:#CFE6FF;}
	.st2{opacity:0.5;}
	.st3{fill:#00E0FF;}
</style>
<path class="st0" d="M57.3,50.2c0,14.6-11.5,26.4-25.6,26.4S6,64.8,6,50.2s11.5-26.4,25.6-26.4S57.3,35.6,57.3,50.2z"/>
<path class="st1" d="M24.7,25.2c0,6.9-5.4,12.6-12.3,12.6S0.3,32.1,0.3,25.2s5.4-12.6,12.3-12.6S24.7,18.2,24.7,25.2z"/>
<circle class="st1" cx="190.8" cy="50.9" r="38.3"/>
<path class="st1" d="M1.4,52.4v-2.2c0-5.8,4.1-8.8,8.8-8.8c3.7,0,7.1,1.9,8.3,5.7L14,48.7c-0.6-2-2-2.9-3.7-2.9c-2.1,0-4,1.4-4,4.5
	v2c0,3.1,1.9,4.5,4,4.5c1.7,0,3.1-0.9,3.7-2.9l4.6,1.6c-1.2,3.8-4.6,5.7-8.3,5.7C5.5,61.2,1.4,58.2,1.4,52.4z"/>
<path class="st1" d="M40.6,49.4v11.4h-4.8V49.6c0-3.2-1.8-3.9-3.6-3.9c-1.9,0-3.6,1.1-3.6,3.5v11.6h-4.9V35.2h4.9v8.6
	c1.1-1.4,2.8-2.4,5-2.4C37.2,41.5,40.6,44.5,40.6,49.4z"/>
<path class="st1" d="M61.8,48.8v12h-4.5l-0.2-2.3c-1,1.7-2.7,2.7-4.9,2.7H51c-3.3,0-5.9-2.5-5.9-6.2c0-3.3,2.3-5.8,6.8-5.8h5v-0.3
	c0-1.6-1-3-3.4-3c-1.6,0-2.7,0.7-3.4,2L45.8,46c1.5-2.6,4.5-4.6,8.1-4.6C58.4,41.5,61.8,44.1,61.8,48.8z M53.3,56.7
	c1.7,0,3.4-0.9,3.7-2.6v-0.8H52c-1.3,0-2.1,0.7-2.1,1.7s0.9,1.7,2.1,1.7C52,56.7,53.3,56.7,53.3,56.7z"/>
<path class="st0" d="M66.5,52.4v-2.2c0-5.8,4.1-8.8,8.8-8.8c3.7,0,7.1,1.9,8.3,5.7l-4.6,1.6c-0.6-2-2-2.9-3.7-2.9
	c-2.1,0-4,1.4-4,4.5v2c0,3.1,1.9,4.5,4,4.5c1.7,0,3.1-0.9,3.7-2.9l4.6,1.6c-1.2,3.8-4.6,5.7-8.3,5.7C70.5,61.2,66.5,58.2,66.5,52.4z
	"/>
<path class="st0" d="M105.7,49.4v11.4h-4.8V49.6c0-3.2-1.8-3.9-3.6-3.9c-1.8,0-3.6,1.1-3.6,3.5v11.6h-4.8V35.2h4.8v8.6
	c1.1-1.4,2.8-2.4,5-2.4C102.3,41.5,105.7,44.5,105.7,49.4z"/>
<path class="st0" d="M126.9,48.8v12h-4.5l-0.2-2.3c-1,1.7-2.7,2.7-4.9,2.7h-1.1c-3.3,0-5.9-2.5-5.9-6.2c0-3.3,2.3-5.8,6.8-5.8h5
	v-0.3c0-1.6-1.1-3-3.4-3c-1.6,0-2.7,0.7-3.4,2l-4.3-1.8c1.4-2.6,4.5-4.6,8.1-4.6C123.4,41.5,126.9,44.1,126.9,48.8z M118.4,56.7
	c1.7,0,3.4-0.9,3.7-2.6v-0.8h-4.9c-1.3,0-2.1,0.7-2.1,1.7s0.9,1.7,2.1,1.7C117.2,56.7,118.4,56.7,118.4,56.7z"/>
<path class="st0" d="M131.5,52.4v-2.2c0-5.8,4.1-8.8,8.8-8.8c3.7,0,7.1,1.9,8.3,5.7l-4.6,1.6c-0.6-2-2-2.9-3.7-2.9
	c-2.1,0-4,1.4-4,4.5v2c0,3.1,1.9,4.5,4,4.5c1.7,0,3.1-0.9,3.7-2.9l4.6,1.6c-1.2,3.8-4.6,5.7-8.3,5.7
	C135.7,61.2,131.5,58.2,131.5,52.4z"/>
<path class="st0" d="M152.9,52.4v-2.2c0-5.8,4.1-8.8,8.8-8.8c4.8,0,8.9,2.9,8.9,8.8v2.2c0,5.8-4.1,8.8-8.9,8.8
	C157.1,61.2,152.9,58.2,152.9,52.4z M165.9,52.3v-2c0-3.1-1.9-4.5-4-4.5c-2.1,0-4,1.4-4,4.5v2c0,3.1,1.9,4.5,4,4.5
	C164,56.8,165.9,55.4,165.9,52.3z"/>
<path class="st0" d="M188.2,35.2h4.9v25.5h-4.5l-0.2-2.2c-1.4,1.7-3.4,2.7-5.6,2.7c-3.8,0-7.5-3.4-7.5-9.1v-1.5
	c0-5.6,3.7-9.1,7.5-9.1c2.1,0,4.1,0.9,5.5,2.6L188.2,35.2L188.2,35.2z M188.2,52v-1.3c0-3.3-1.9-4.8-4.1-4.8c-2.3,0-4.1,1.4-4.1,4.8
	V52c0,3.3,1.9,4.8,4.1,4.8C186.4,56.8,188.2,55.3,188.2,52z"/>
<path class="st0" d="M199.1,36.4c0-1.5,1.2-2.7,2.7-2.7c1.5,0,2.7,1.2,2.7,2.7s-1.2,2.7-2.7,2.7C200.3,39.1,199.1,37.9,199.1,36.4z
	 M199.4,60.7V41.9h4.9v18.9H199.4z"/>
<path class="st0" d="M227.4,49.5v11.3h-4.9V49.6c0-3-1.8-3.8-3.6-3.8c-1.8,0-3.6,1.2-3.6,3.4v11.6h-4.9V41.9h4.5L215,44
	c1.1-1.5,2.9-2.6,5.2-2.6C224.1,41.5,227.4,44.4,227.4,49.5z"/>
<path class="st0" d="M245.5,41.9h4.5v16.3c0,5.8-4.3,8.3-9,8.3c-3.7,0-7.1-1.3-8.3-4l5-1.8c0.5,1.2,1.8,1.8,3.3,1.8
	c2.6,0,4.2-1.5,4.2-4.5v-0.8c-1.4,1.5-3.4,2.4-5.5,2.4c-3.6,0-7.5-3.2-7.5-8.2v-1.5c0-5.1,3.9-8.2,7.5-8.2c2.1,0,4.2,0.9,5.6,2.5
	L245.5,41.9z M245.2,51.1v-1.2c0-2.7-1.9-4.2-4.1-4.2c-2.3,0-4.1,1.5-4.1,4.2v1.2c0,2.7,1.9,4.2,4.1,4.2
	C243.3,55.3,245.2,53.8,245.2,51.1z"/>
<g class="st2">
	<path class="st3" d="M137.9,30.3c-1.4,1.4-1.4,3.7,0,5.1l0,0l0,0l0,0l0,0c0.3,0.3,0.8,0.3,1.1,0c0.3-0.3,0.3-0.8,0-1l0,0
		c-0.8-0.8-0.8-2.2,0-3s2.2-0.8,3,0l0,0c0.3,0.3,0.8,0.3,1.1,0c0.3-0.3,0.3-0.8,0-1l0,0l0,0l0,0l0,0
		C141.6,28.9,139.3,28.9,137.9,30.3z"/>
</g>
<g class="st2">
	<path class="st3" d="M143,35.4c1.4-1.4,1.4-3.7,0-5.1l0,0l0,0l0,0l0,0c-0.3-0.3-0.8-0.3-1.1,0c-0.3,0.3-0.3,0.8,0,1l0,0
		c0.8,0.8,0.8,2.2,0,3c-0.8,0.8-2.2,0.8-3,0l0,0c-0.3-0.3-0.8-0.3-1.1,0s-0.3,0.8,0,1l0,0l0,0l0,0l0,0
		C139.3,36.8,141.6,36.8,143,35.4z"/>
</g>
</svg>
